<?xml version="1.0" encoding="utf-8"?>
<!-- Generator: Adobe Illustrator 15.0.0, SVG Export Plug-In . SVG Version: 6.00 Build 0)  -->
<!DOCTYPE svg PUBLIC "-//W3C//DTD SVG 1.1//EN" "http://www.w3.org/Graphics/SVG/1.1/DTD/svg11.dtd">
<svg version="1.1" id="Layer_1" xmlns="http://www.w3.org/2000/svg" xmlns:xlink="http://www.w3.org/1999/xlink" x="0px" y="0px"
	 width="515px" height="245px" viewBox="142.5 188.5 515 245" enable-background="new 142.5 188.5 515 245" xml:space="preserve">
<g>
	<path fill="#58574B" d="M380.864,242.601c-11.19,29.45-24.595,42.576-69.322,42.576c0-24.594-59.146,2.365-86.382,1.415
		c-6.947-0.216-19.213,3.934-19.213-2.337c14.479-3.568,32.124-2.366,47.803-7.285c10.912-3.443,20.935-7.193,28.436-11.224
		c8.607-4.67,17.399,0.188,24.192-4.64c1.753-2.828,5.441-5.625,7.192-8.423c8.147-3.504,13.712-8.914,21.858-12.451
		c6.395-3.166,9.037-3.964,13.772-7.991c9.99-8.484,23.302-12.481,35.016-19.367c9.224-5.412,10.667-10.822,17.09-15.434
		c15.525,1.875,24.868,12.514,36.984,17.522c49.276,20.381,91.794,50.046,141.037,69.508c-34.552,21.117-57.608-12.176-81.43-30.463
		c-10.854-8.301-52.107-12.852-60.898-22.563c-9.285-10.271-19.921-18.785-26.162-23.671c-6.611-5.196-9.93,6.731-12.728,9.528
		C391.994,223.389,385.076,231.472,380.864,242.601z"/>
	<g>
		<path fill="#A5CD39" d="M357.008,313.427c13.188,3.105,22.503,7.008,27.605,10.884H362.48c-1.106-1.32-2.951-2.643-5.472-3.876
			V313.427L357.008,313.427z M357.008,310.876c16.384,3.321,28.25,8.329,35.141,13.435h18.564
			c-8.759-5.383-21.673-10.546-38.488-13.958c-4.919-0.982-9.991-1.904-15.217-2.702V310.876L357.008,310.876z M357.008,305.649
			c10.666,1.567,20.965,3.534,30.524,6.027c12.604,3.318,22.78,7.807,30.403,12.634h17.4c-7.778-4.24-17.367-8.208-28.713-11.376
			c-14.847-4.181-31.786-7.036-49.616-9.129L357.008,305.649L357.008,305.649z M357.008,301.808
			c22.81,2.581,45.683,6.518,64.743,13.096c8.024,2.768,15.126,5.964,21.242,9.406h17.829c-5.937-2.827-12.572-5.534-19.892-7.99
			c-23.671-8.024-53.366-12.697-83.923-15.403V301.808z M338.839,310.108c6.671,0.923,12.758,2.062,18.169,3.317v7.008
			c-4.211-2.088-10.3-4.023-18.169-5.776V310.108L338.839,310.108z M357.008,300.916v0.892c-6.087-0.706-12.173-1.291-18.169-1.814
			v-0.43C344.897,299.933,350.952,300.392,357.008,300.916L357.008,300.916z M357.008,303.805v1.845
			c-5.994-0.892-12.05-1.656-18.169-2.365v-1.291C344.958,302.514,351.015,303.129,357.008,303.805L357.008,303.805z
			 M357.008,307.649c-5.902-0.924-11.989-1.724-18.169-2.46v2.643c4.858,0.709,9.592,1.477,14.234,2.308
			c1.352,0.214,2.644,0.49,3.935,0.736V307.649L357.008,307.649z M338.839,324.311h9.438c-1.076-1.78-4.242-3.474-9.438-5.042
			V324.311z M319.996,307.74c5.996,0.707,11.866,1.416,17.553,2.183c0.432,0.064,0.861,0.125,1.291,0.187v4.549
			c-5.472-1.197-11.742-2.271-18.844-3.229V307.74L319.996,307.74z M338.839,299.563v0.43c-3.166-0.277-6.301-0.554-9.407-0.798
			c-0.03-0.061-0.061-0.122-0.061-0.186C332.507,299.165,335.673,299.348,338.839,299.563L338.839,299.563z M338.839,301.993v1.291
			c-6.27-0.676-12.573-1.291-18.844-1.845v-0.893C326.297,300.979,332.599,301.439,338.839,301.993L338.839,301.993z
			 M338.839,305.189c-6.178-0.709-12.48-1.352-18.844-1.905v2.121c6.364,0.737,12.666,1.536,18.844,2.427V305.189L338.839,305.189z
			 M338.839,319.269v5.042h-18.167c-0.215-0.151-0.43-0.308-0.676-0.46v-8.605C327.834,316.502,334.138,317.854,338.839,319.269z
			 M218.336,299.01c33.752,2.368,69.718,5.072,101.659,8.73v3.688c-0.552-0.062-1.076-0.151-1.628-0.216
			c-31.879-4.085-68.398-8.362-99.94-11.866C218.366,299.257,218.366,299.135,218.336,299.01L218.336,299.01z M319.996,300.547
			c-9.221-0.584-18.475-1.107-27.636-1.537c0.032,0.063,0.062,0.155,0.062,0.247c8.945,0.645,18.229,1.352,27.574,2.183V300.547
			L319.996,300.547z M319.996,303.284c-21.18-1.906-43.282-3.075-64.649-4.274c0.062,0.092,0.062,0.186,0.094,0.308
			c20.534,1.814,43.005,3.567,64.555,6.088V303.284L319.996,303.284z M319.996,315.244c-6.455-1.047-13.956-2.033-22.44-2.925
			c-37.658-4.089-81.403-9.866-121.52-13.311c0,0.125,0.03,0.247,0.061,0.368c31.663,4.214,68.829,10.545,102.245,15.188
			c21.886,3.044,36.151,5.902,41.653,9.284L319.996,315.244L319.996,315.244z"/>
		<g>
			<path fill="#58574B" d="M608.688,299.411c-40.118,3.44-83.895,9.222-121.521,13.31c-17.492,1.875-30.74,4.024-39.377,6.396
				c4.394,1.657,8.515,3.38,12.354,5.193h4.487c5.413-3.412,19.708-6.271,41.748-9.346c33.389-4.64,70.552-10.972,102.248-15.188
				C608.627,299.655,608.654,299.533,608.688,299.411z"/>
			<path fill="#58574B" d="M492.33,299.411c-29.754,1.446-60.71,3.44-87.889,8.083c2.338,0.432,4.643,0.892,6.919,1.354
				c25.517-5.071,54.595-7.227,80.908-9.224C492.27,299.563,492.33,299.473,492.33,299.411z"/>
			<path fill="#58574B" d="M529.344,299.411c-38.457,2.183-79.403,4.241-112.789,10.543c2.768,0.614,5.503,1.26,8.177,1.938
				c2.214-0.492,4.519-0.954,6.89-1.354c30.308-5.409,66.214-8.055,97.66-10.853C529.28,299.595,529.312,299.5,529.344,299.411z"/>
			<path fill="#58574B" d="M566.355,299.411c-40.087,2.825-83.309,6.086-119.184,10.914c-6.271,0.828-11.988,1.845-17.154,2.979
				c3.508,0.983,6.92,1.999,10.204,3.104c6.95-1.814,15.685-3.477,26.102-4.797c31.912-4.089,68.399-8.362,99.972-11.864
				C566.325,299.625,566.355,299.533,566.355,299.411z"/>
		</g>
	</g>
</g>
<g>
	<g>
		<path fill="#58574B" d="M177.544,362.418v10.374c0,1.639-0.372,2.868-1.115,3.687c-0.743,0.819-1.725,1.229-2.943,1.229
			c-1.182,0-2.139-0.41-2.873-1.229c-0.733-0.817-1.1-2.048-1.1-3.687V360.36c0-1.964-0.067-3.487-0.2-4.573
			s-0.496-1.978-1.086-2.672c-0.591-0.695-1.524-1.043-2.801-1.043c-2.554,0-4.235,0.876-5.044,2.629
			c-0.81,1.753-1.214,4.269-1.214,7.545v10.546c0,1.62-0.367,2.844-1.101,3.673c-0.733,0.828-1.7,1.243-2.901,1.243
			c-1.182,0-2.148-0.415-2.901-1.243c-0.753-0.829-1.129-2.053-1.129-3.673v-22.32c0-1.467,0.338-2.582,1.015-3.344
			c0.676-0.763,1.567-1.144,2.672-1.144c1.067,0,1.958,0.356,2.672,1.07c0.715,0.715,1.072,1.701,1.072,2.958v0.743
			c1.353-1.619,2.801-2.81,4.344-3.572c1.543-0.762,3.258-1.143,5.145-1.143c1.962,0,3.648,0.391,5.059,1.171
			c1.41,0.782,2.572,1.963,3.486,3.544c1.315-1.601,2.725-2.786,4.23-3.558s3.172-1.157,5.001-1.157
			c2.134,0,3.973,0.419,5.516,1.257c1.543,0.839,2.696,2.039,3.458,3.603c0.667,1.409,1,3.629,1,6.657v15.233
			c0,1.639-0.372,2.868-1.114,3.687c-0.743,0.819-1.725,1.229-2.944,1.229c-1.182,0-2.148-0.415-2.901-1.243
			c-0.753-0.829-1.129-2.053-1.129-3.673v-13.118c0-1.676-0.071-3.02-0.214-4.029c-0.143-1.009-0.529-1.857-1.158-2.544
			c-0.628-0.686-1.582-1.027-2.858-1.027c-1.029,0-2.005,0.305-2.929,0.914c-0.924,0.609-1.644,1.429-2.158,2.458
			C177.83,356.759,177.544,359.084,177.544,362.418z"/>
	</g>
	<g>
		<path fill="#58574B" d="M247.541,361.846c0,2.325-0.362,4.47-1.086,6.432c-0.724,1.963-1.772,3.647-3.144,5.059
			c-1.372,1.41-3.011,2.491-4.916,3.244c-1.906,0.752-4.049,1.129-6.431,1.129c-2.363,0-4.487-0.382-6.373-1.144
			c-1.886-0.763-3.521-1.854-4.901-3.272c-1.382-1.419-2.429-3.096-3.144-5.03c-0.714-1.934-1.072-4.071-1.072-6.416
			c0-2.361,0.362-4.523,1.086-6.486c0.724-1.962,1.762-3.64,3.115-5.03s2.991-2.462,4.916-3.215
			c1.924-0.753,4.048-1.129,6.373-1.129c2.362,0,4.506,0.381,6.431,1.144c1.924,0.762,3.572,1.848,4.944,3.258
			s2.415,3.087,3.13,5.03C247.184,357.359,247.541,359.503,247.541,361.846z M239.71,361.846c0-3.182-0.7-5.657-2.101-7.431
			c-1.4-1.771-3.282-2.657-5.645-2.657c-1.524,0-2.868,0.396-4.03,1.187c-1.162,0.791-2.058,1.958-2.687,3.501
			c-0.628,1.543-0.943,3.344-0.943,5.4c0,2.039,0.31,3.82,0.929,5.346c0.619,1.524,1.505,2.69,2.658,3.501
			c1.153,0.81,2.51,1.215,4.073,1.215c2.362,0,4.244-0.892,5.645-2.673C239.01,367.452,239.71,364.99,239.71,361.846z"/>
	</g>
	<g>
		<path fill="#58574B" d="M288.889,373.307v-1.001c-0.934,1.183-1.915,2.173-2.943,2.974c-1.029,0.801-2.153,1.396-3.373,1.786
			c-1.22,0.391-2.61,0.586-4.173,0.586c-1.886,0-3.577-0.392-5.073-1.173c-1.496-0.78-2.653-1.856-3.472-3.229
			c-0.972-1.657-1.458-4.039-1.458-7.145v-15.463c0-1.562,0.352-2.729,1.057-3.501c0.705-0.771,1.639-1.156,2.801-1.156
			c1.181,0,2.134,0.391,2.858,1.172c0.724,0.78,1.086,1.942,1.086,3.485v12.489c0,1.812,0.152,3.33,0.457,4.56
			c0.305,1.229,0.853,2.19,1.644,2.887c0.79,0.695,1.862,1.043,3.215,1.043c1.315,0,2.553-0.391,3.715-1.172s2.01-1.801,2.544-3.059
			c0.438-1.104,0.657-3.523,0.657-7.26v-9.488c0-1.543,0.362-2.705,1.086-3.485c0.724-0.781,1.667-1.172,2.83-1.172
			c1.162,0,2.095,0.386,2.801,1.156c0.705,0.771,1.057,1.939,1.057,3.501v22.606c0,1.486-0.338,2.601-1.015,3.344
			c-0.677,0.743-1.548,1.115-2.615,1.115c-1.067,0-1.948-0.386-2.644-1.158C289.236,375.778,288.889,374.697,288.889,373.307z"/>
	</g>
	<g>
		<path fill="#58574B" d="M326.006,350.3v0.943c1.372-1.812,2.872-3.14,4.501-3.987c1.629-0.848,3.501-1.271,5.616-1.271
			c2.058,0,3.896,0.447,5.516,1.343c1.619,0.896,2.83,2.163,3.629,3.802c0.515,0.953,0.848,1.981,1,3.086
			c0.152,1.105,0.229,2.517,0.229,4.23v14.519c0,1.562-0.357,2.743-1.072,3.543c-0.714,0.801-1.643,1.201-2.786,1.201
			c-1.163,0-2.106-0.41-2.83-1.229s-1.086-1.99-1.086-3.516V359.96c0-2.572-0.357-4.539-1.072-5.902
			c-0.714-1.36-2.139-2.043-4.272-2.043c-1.391,0-2.658,0.414-3.801,1.243s-1.982,1.968-2.515,3.415
			c-0.381,1.163-0.571,3.335-0.571,6.518v9.773c0,1.581-0.367,2.769-1.101,3.559s-1.682,1.187-2.844,1.187
			c-1.125,0-2.048-0.41-2.772-1.229c-0.725-0.818-1.086-1.99-1.086-3.516v-22.55c0-1.486,0.324-2.596,0.972-3.329
			c0.647-0.733,1.533-1.101,2.658-1.101c0.686,0,1.305,0.161,1.858,0.484c0.552,0.324,0.995,0.812,1.329,1.458
			C325.838,348.576,326.006,349.366,326.006,350.3z"/>
	</g>
	<g>
		<path fill="#58574B" d="M369.64,346.67h0.857v-4.687c0-1.259,0.033-2.244,0.1-2.958c0.066-0.716,0.252-1.329,0.557-1.845
			c0.305-0.532,0.743-0.967,1.314-1.3c0.572-0.333,1.21-0.501,1.915-0.501c0.99,0,1.886,0.372,2.687,1.115
			c0.533,0.495,0.872,1.101,1.015,1.813c0.143,0.716,0.214,1.729,0.214,3.044v5.315h2.858c1.104,0,1.948,0.263,2.529,0.786
			s0.872,1.196,0.872,2.015c0,1.049-0.415,1.782-1.243,2.201c-0.829,0.419-2.015,0.629-3.558,0.629h-1.458v14.348
			c0,1.22,0.042,2.156,0.128,2.814c0.086,0.657,0.314,1.19,0.686,1.6c0.372,0.41,0.976,0.615,1.815,0.615
			c0.457,0,1.076-0.081,1.857-0.243c0.781-0.162,1.391-0.242,1.829-0.242c0.629,0,1.195,0.253,1.701,0.758
			c0.504,0.505,0.757,1.129,0.757,1.872c0,1.257-0.686,2.22-2.058,2.886c-1.372,0.667-3.344,1.001-5.916,1.001
			c-2.439,0-4.287-0.41-5.544-1.229c-1.258-0.817-2.082-1.951-2.472-3.399c-0.391-1.448-0.586-3.382-0.586-5.802V352.3h-1.029
			c-1.125,0-1.982-0.267-2.572-0.801c-0.591-0.533-0.886-1.21-0.886-2.029c0-0.817,0.31-1.489,0.929-2.015
			C367.558,346.933,368.458,346.67,369.64,346.67z"/>
	</g>
	<g>
		<path fill="#58574B" d="M424.59,373.307c-1.887,1.468-3.711,2.567-5.474,3.302c-1.764,0.733-3.739,1.101-5.931,1.101
			c-2.001,0-3.759-0.396-5.272-1.187s-2.682-1.862-3.501-3.216c-0.819-1.353-1.229-2.818-1.229-4.4c0-2.134,0.677-3.953,2.029-5.459
			c1.354-1.505,3.21-2.516,5.572-3.029c0.495-0.114,1.725-0.371,3.688-0.771c1.962-0.4,3.645-0.768,5.044-1.102
			c1.4-0.333,2.92-0.738,4.56-1.215c-0.097-2.058-0.511-3.567-1.243-4.529c-0.734-0.962-2.254-1.442-4.559-1.442
			c-1.981,0-3.474,0.275-4.474,0.829c-1,0.553-1.856,1.381-2.572,2.485c-0.715,1.104-1.22,1.834-1.515,2.187
			c-0.296,0.354-0.929,0.528-1.9,0.528c-0.877,0-1.634-0.28-2.271-0.843c-0.639-0.562-0.957-1.281-0.957-2.158
			c0-1.372,0.485-2.705,1.457-4.001s2.486-2.361,4.545-3.201c2.058-0.838,4.619-1.258,7.688-1.258c3.43,0,6.125,0.405,8.088,1.215
			c1.962,0.812,3.349,2.093,4.157,3.845c0.811,1.754,1.216,4.078,1.216,6.974c0,1.829-0.006,3.383-0.016,4.658
			c-0.01,1.277-0.022,2.696-0.043,4.259c0,1.468,0.243,2.996,0.729,4.587c0.484,1.591,0.729,2.615,0.729,3.072
			c0,0.801-0.377,1.529-1.129,2.187c-0.753,0.657-1.604,0.986-2.558,0.986c-0.802,0-1.593-0.377-2.372-1.129
			C426.294,375.826,425.466,374.735,424.59,373.307z M424.075,362.018c-1.145,0.42-2.807,0.862-4.987,1.329
			c-2.181,0.468-3.69,0.811-4.53,1.028c-0.838,0.22-1.639,0.648-2.399,1.286c-0.762,0.639-1.144,1.529-1.144,2.673
			c0,1.182,0.447,2.187,1.344,3.015c0.896,0.829,2.066,1.243,3.516,1.243c1.543,0,2.967-0.338,4.272-1.015
			c1.305-0.676,2.262-1.548,2.871-2.615c0.705-1.181,1.059-3.124,1.059-5.83L424.075,362.018L424.075,362.018z"/>
	</g>
	<g>
		<path fill="#58574B" d="M458.522,342.354c-1.087,0-2.016-0.332-2.786-1c-0.771-0.666-1.158-1.609-1.158-2.828
			c0-1.105,0.396-2.017,1.187-2.729c0.79-0.715,1.71-1.072,2.759-1.072c1.01,0,1.904,0.324,2.687,0.973
			c0.781,0.647,1.172,1.592,1.172,2.83c0,1.199-0.382,2.139-1.144,2.813C460.476,342.017,459.57,342.354,458.522,342.354z
			 M462.381,350.414v22.55c0,1.562-0.372,2.743-1.114,3.543c-0.742,0.801-1.687,1.201-2.829,1.201c-1.144,0-2.071-0.41-2.786-1.229
			c-0.716-0.817-1.072-1.989-1.072-3.515v-22.321c0-1.543,0.356-2.705,1.072-3.485c0.715-0.781,1.644-1.172,2.786-1.172
			c1.144,0,2.087,0.391,2.829,1.172C462.009,347.938,462.381,349.023,462.381,350.414z"/>
	</g>
	<g>
		<path fill="#58574B" d="M492.467,350.3v0.943c1.372-1.812,2.872-3.14,4.502-3.987c1.629-0.848,3.501-1.271,5.615-1.271
			c2.058,0,3.896,0.447,5.516,1.343c1.62,0.896,2.83,2.163,3.631,3.802c0.515,0.953,0.848,1.981,1,3.086
			c0.151,1.105,0.229,2.517,0.229,4.23v14.519c0,1.562-0.357,2.743-1.072,3.543c-0.714,0.801-1.644,1.201-2.786,1.201
			c-1.163,0-2.104-0.41-2.829-1.229s-1.087-1.99-1.087-3.516V359.96c0-2.572-0.355-4.539-1.07-5.902
			c-0.715-1.36-2.14-2.043-4.272-2.043c-1.392,0-2.658,0.414-3.802,1.243s-1.981,1.968-2.515,3.415
			c-0.382,1.163-0.571,3.335-0.571,6.518v9.773c0,1.581-0.367,2.769-1.102,3.559c-0.733,0.79-1.682,1.187-2.844,1.187
			c-1.124,0-2.048-0.41-2.771-1.229c-0.725-0.818-1.086-1.99-1.086-3.516v-22.55c0-1.486,0.323-2.596,0.972-3.329
			c0.647-0.733,1.534-1.101,2.658-1.101c0.686,0,1.305,0.161,1.856,0.484c0.554,0.324,0.996,0.812,1.329,1.458
			C492.3,348.576,492.467,349.366,492.467,350.3z"/>
	</g>
	<g>
		<path fill="#A5CD39" d="M536.101,346.67h0.857v-4.687c0-1.259,0.033-2.244,0.101-2.958c0.066-0.716,0.252-1.329,0.558-1.845
			c0.305-0.532,0.743-0.967,1.314-1.3s1.209-0.501,1.914-0.501c0.991,0,1.888,0.372,2.688,1.115
			c0.533,0.495,0.872,1.101,1.015,1.813c0.145,0.716,0.215,1.729,0.215,3.044v5.315h2.857c1.104,0,1.948,0.263,2.529,0.786
			s0.872,1.196,0.872,2.015c0,1.049-0.414,1.782-1.243,2.201s-2.016,0.629-3.56,0.629h-1.457v14.348c0,1.22,0.043,2.156,0.13,2.814
			c0.085,0.657,0.312,1.19,0.686,1.6c0.371,0.41,0.977,0.615,1.814,0.615c0.457,0,1.075-0.081,1.857-0.243
			c0.78-0.161,1.39-0.242,1.829-0.242c0.628,0,1.195,0.253,1.7,0.758s0.757,1.129,0.757,1.872c0,1.257-0.687,2.22-2.058,2.886
			c-1.372,0.667-3.345,1.001-5.916,1.001c-2.438,0-4.287-0.41-5.545-1.229c-1.258-0.817-2.081-1.951-2.473-3.399
			c-0.391-1.448-0.586-3.382-0.586-5.802V352.3h-1.028c-1.125,0-1.981-0.267-2.571-0.801c-0.592-0.533-0.887-1.21-0.887-2.029
			c0-0.817,0.311-1.489,0.93-2.015C534.02,346.933,534.919,346.67,536.101,346.67z"/>
	</g>
	<g>
		<path fill="#A5CD39" d="M600.541,361.846c0,2.325-0.362,4.47-1.086,6.432c-0.725,1.963-1.772,3.647-3.146,5.059
			c-1.37,1.41-3.01,2.491-4.915,3.244c-1.904,0.752-4.049,1.129-6.431,1.129c-2.362,0-4.487-0.382-6.373-1.144
			c-1.887-0.763-3.521-1.854-4.9-3.272c-1.383-1.419-2.431-3.096-3.145-5.03c-0.715-1.934-1.072-4.071-1.072-6.416
			c0-2.361,0.362-4.523,1.086-6.486c0.726-1.962,1.764-3.64,3.115-5.03c1.354-1.391,2.991-2.462,4.916-3.215
			c1.924-0.753,4.048-1.129,6.373-1.129c2.362,0,4.506,0.381,6.431,1.144c1.925,0.762,3.572,1.848,4.944,3.258
			c1.371,1.41,2.415,3.087,3.129,5.03C600.184,357.359,600.541,359.503,600.541,361.846z M592.71,361.846
			c0-3.182-0.7-5.657-2.101-7.431c-1.4-1.771-3.282-2.657-5.646-2.657c-1.523,0-2.868,0.396-4.029,1.187
			c-1.163,0.791-2.058,1.958-2.687,3.501s-0.943,3.344-0.943,5.4c0,2.039,0.311,3.82,0.93,5.346c0.619,1.524,1.505,2.69,2.657,3.501
			c1.152,0.81,2.511,1.215,4.072,1.215c2.362,0,4.244-0.892,5.646-2.673C592.01,367.452,592.71,364.99,592.71,361.846z"/>
	</g>
	<g>
		<path fill="#A5CD39" d="M628.827,350.357v0.941c1.467-1.81,2.991-3.139,4.573-3.986c1.581-0.848,3.372-1.271,5.373-1.271
			c2.399,0,4.609,0.619,6.63,1.857c2.02,1.237,3.614,3.049,4.787,5.43c1.172,2.382,1.758,5.202,1.758,8.46
			c0,2.4-0.339,4.605-1.016,6.616c-0.677,2.01-1.604,3.695-2.786,5.059c-1.182,1.362-2.576,2.41-4.188,3.145
			c-1.611,0.733-3.339,1.101-5.188,1.101c-2.229,0-4.102-0.448-5.615-1.344c-1.515-0.896-2.958-2.21-4.33-3.943v11.717
			c0,3.431-1.248,5.146-3.743,5.146c-1.468,0-2.439-0.442-2.916-1.329c-0.476-0.886-0.714-2.177-0.714-3.872v-33.667
			c0-1.486,0.323-2.596,0.972-3.329c0.647-0.733,1.533-1.101,2.658-1.101c1.104,0,2.005,0.376,2.7,1.129
			C628.478,347.868,628.827,348.947,628.827,350.357z M644.117,361.703c0-2.059-0.314-3.825-0.942-5.302
			c-0.629-1.478-1.501-2.61-2.615-3.4c-1.114-0.791-2.349-1.187-3.7-1.187c-2.153,0-3.969,0.848-5.444,2.544
			c-1.477,1.694-2.215,4.19-2.215,7.486c0,3.106,0.732,5.521,2.2,7.245c1.467,1.726,3.287,2.587,5.459,2.587
			c1.295,0,2.496-0.376,3.601-1.129c1.105-0.753,1.991-1.882,2.658-3.387S644.117,363.837,644.117,361.703z"/>
	</g>
</g>
<g>
	<path d="M234.605,398.473l3.979,11.162l4.285-11.647c0.336-0.938,0.666-1.601,0.99-1.989c0.324-0.391,0.816-0.585,1.477-0.585
		c0.624,0,1.155,0.21,1.593,0.63s0.657,0.906,0.657,1.458c0,0.216-0.039,0.468-0.117,0.756c-0.078,0.288-0.168,0.56-0.27,0.812
		c-0.102,0.252-0.219,0.54-0.351,0.863l-4.717,11.703c-0.132,0.336-0.303,0.763-0.513,1.278s-0.444,0.957-0.702,1.323
		c-0.258,0.365-0.576,0.65-0.954,0.854c-0.378,0.204-0.837,0.308-1.377,0.308c-0.696,0-1.251-0.159-1.665-0.479
		c-0.414-0.317-0.72-0.666-0.918-1.044c-0.198-0.378-0.531-1.125-0.999-2.241l-4.681-11.577c-0.108-0.287-0.219-0.575-0.333-0.863
		c-0.114-0.288-0.21-0.582-0.288-0.883c-0.078-0.3-0.117-0.559-0.117-0.773c0-0.336,0.102-0.669,0.306-0.999
		s0.486-0.601,0.846-0.812c0.36-0.21,0.75-0.313,1.17-0.313c0.816,0,1.377,0.233,1.683,0.702
		C233.894,396.582,234.232,397.368,234.605,398.473z"/>
	<path d="M255.443,393.125c-0.685,0-1.27-0.21-1.756-0.63s-0.729-1.015-0.729-1.782c0-0.696,0.249-1.27,0.747-1.72
		s1.077-0.675,1.738-0.675c0.636,0,1.2,0.204,1.692,0.61c0.492,0.408,0.738,1.003,0.738,1.783c0,0.756-0.24,1.347-0.72,1.773
		S256.103,393.125,255.443,393.125z M257.874,398.202v14.205c0,0.983-0.234,1.729-0.702,2.232c-0.468,0.504-1.062,0.757-1.782,0.757
		c-0.72,0-1.305-0.26-1.755-0.774c-0.45-0.515-0.675-1.254-0.675-2.215v-14.062c0-0.973,0.225-1.704,0.675-2.196
		c0.45-0.491,1.035-0.737,1.755-0.737c0.72,0,1.314,0.246,1.782,0.737C257.64,396.643,257.874,397.326,257.874,398.202z"/>
	<path d="M269.26,398.13v0.595c0.864-1.141,1.809-1.978,2.835-2.512c1.026-0.534,2.206-0.801,3.538-0.801
		c1.296,0,2.455,0.281,3.475,0.846s1.782,1.362,2.287,2.396c0.324,0.601,0.534,1.249,0.63,1.943
		c0.096,0.696,0.144,1.585,0.144,2.665v9.146c0,0.983-0.225,1.729-0.675,2.232c-0.45,0.504-1.036,0.757-1.756,0.757
		c-0.732,0-1.326-0.26-1.782-0.774s-0.684-1.254-0.684-2.215v-8.191c0-1.62-0.225-2.858-0.675-3.718
		c-0.45-0.859-1.348-1.287-2.691-1.287c-0.876,0-1.674,0.261-2.395,0.783c-0.72,0.521-1.249,1.239-1.584,2.151
		c-0.24,0.731-0.36,2.101-0.36,4.104v6.157c0,0.997-0.231,1.744-0.693,2.242s-1.06,0.747-1.792,0.747
		c-0.708,0-1.291-0.26-1.747-0.774s-0.684-1.254-0.684-2.215v-14.205c0-0.938,0.204-1.635,0.612-2.098
		c0.408-0.462,0.966-0.692,1.674-0.692c0.432,0,0.822,0.102,1.17,0.306s0.627,0.511,0.837,0.918
		C269.154,397.044,269.26,397.542,269.26,398.13z"/>
	<path d="M302.628,406.61h-9.614c0.012,1.115,0.237,2.101,0.675,2.952c0.438,0.853,1.02,1.494,1.746,1.927s1.527,0.647,2.404,0.647
		c0.588,0,1.125-0.068,1.611-0.207c0.486-0.138,0.957-0.354,1.414-0.647c0.456-0.294,0.876-0.608,1.26-0.945
		c0.384-0.336,0.882-0.792,1.494-1.368c0.252-0.216,0.612-0.324,1.081-0.324c0.504,0,0.912,0.14,1.224,0.414
		c0.312,0.276,0.468,0.666,0.468,1.171c0,0.444-0.174,0.964-0.522,1.558c-0.348,0.595-0.873,1.165-1.575,1.711
		s-1.584,0.999-2.646,1.359c-1.062,0.359-2.284,0.539-3.664,0.539c-3.157,0-5.611-0.899-7.364-2.7
		c-1.752-1.8-2.628-4.242-2.628-7.327c0-1.452,0.216-2.8,0.648-4.042c0.432-1.242,1.062-2.309,1.891-3.196
		c0.828-0.888,1.848-1.568,3.061-2.043s2.557-0.711,4.033-0.711c1.92,0,3.567,0.404,4.942,1.215
		c1.375,0.812,2.404,1.857,3.088,3.143c0.684,1.284,1.026,2.593,1.026,3.925c0,1.235-0.354,2.038-1.062,2.403
		C304.909,406.428,303.913,406.61,302.628,406.61z M293.014,403.819h8.912c-0.12-1.681-0.573-2.938-1.359-3.771
		s-1.821-1.251-3.105-1.251c-1.225,0-2.23,0.423-3.016,1.27C293.659,400.912,293.182,402.163,293.014,403.819z"/>
	<path d="M316.247,416.009l0.45-1.099l-6.049-15.231c-0.373-0.876-0.558-1.513-0.558-1.907c0-0.421,0.108-0.812,0.324-1.172
		c0.216-0.358,0.513-0.646,0.891-0.863c0.378-0.217,0.771-0.323,1.18-0.323c0.708,0,1.242,0.225,1.602,0.675
		s0.678,1.096,0.955,1.937l4.159,12.099l3.943-11.253c0.312-0.912,0.594-1.626,0.846-2.144c0.252-0.516,0.519-0.863,0.801-1.044
		c0.282-0.18,0.681-0.27,1.197-0.27c0.372,0,0.729,0.099,1.071,0.297c0.342,0.198,0.606,0.465,0.792,0.801s0.279,0.69,0.279,1.062
		c-0.048,0.228-0.126,0.552-0.234,0.972c-0.108,0.421-0.24,0.847-0.396,1.278l-6.41,16.78c-0.552,1.477-1.092,2.635-1.621,3.475
		c-0.528,0.841-1.227,1.485-2.097,1.936c-0.871,0.45-2.044,0.677-3.52,0.677c-1.44,0-2.521-0.156-3.241-0.47
		c-0.72-0.312-1.081-0.882-1.081-1.71c0-0.563,0.171-0.999,0.513-1.306c0.342-0.306,0.849-0.459,1.521-0.459
		c0.264,0,0.522,0.036,0.774,0.108c0.312,0.07,0.582,0.106,0.81,0.106c0.564,0,1.008-0.084,1.332-0.252
		c0.324-0.168,0.615-0.459,0.874-0.873C315.614,417.422,315.911,416.812,316.247,416.009z"/>
	<path d="M345.475,412.624c-1.188,0.924-2.337,1.617-3.448,2.079c-1.111,0.462-2.355,0.693-3.736,0.693
		c-1.26,0-2.368-0.249-3.322-0.747c-0.954-0.498-1.689-1.174-2.206-2.025s-0.774-1.776-0.774-2.773c0-1.344,0.426-2.489,1.278-3.438
		s2.022-1.584,3.511-1.908c0.312-0.072,1.086-0.233,2.322-0.486c1.236-0.252,2.296-0.482,3.178-0.692
		c0.882-0.21,1.839-0.465,2.872-0.766c-0.061-1.297-0.321-2.247-0.783-2.854s-1.42-0.909-2.872-0.909
		c-1.248,0-2.188,0.174-2.817,0.521c-0.63,0.349-1.17,0.87-1.621,1.565c-0.451,0.696-0.768,1.155-0.954,1.378
		s-0.585,0.333-1.197,0.333c-0.552,0-1.029-0.178-1.431-0.53c-0.402-0.354-0.604-0.809-0.604-1.359c0-0.864,0.306-1.704,0.918-2.521
		c0.612-0.816,1.566-1.487,2.863-2.017c1.296-0.528,2.91-0.792,4.843-0.792c2.161,0,3.859,0.255,5.095,0.765
		c1.236,0.512,2.109,1.317,2.62,2.423c0.511,1.104,0.765,2.567,0.765,4.393c0,1.152-0.003,2.131-0.009,2.935
		c-0.006,0.806-0.015,1.699-0.027,2.685c0,0.924,0.153,1.887,0.459,2.89c0.306,1.002,0.459,1.646,0.459,1.936
		c0,0.505-0.237,0.964-0.711,1.378c-0.475,0.414-1.011,0.621-1.611,0.621c-0.504,0-1.002-0.237-1.495-0.711
		C346.549,414.211,346.027,413.524,345.475,412.624z M345.151,405.512c-0.72,0.266-1.768,0.544-3.142,0.838
		s-2.326,0.511-2.854,0.647c-0.528,0.139-1.032,0.408-1.512,0.811s-0.72,0.964-0.72,1.685c0,0.744,0.282,1.377,0.846,1.898
		s1.302,0.783,2.214,0.783c0.972,0,1.87-0.213,2.692-0.64c0.822-0.426,1.425-0.976,1.809-1.647c0.444-0.744,0.667-1.968,0.667-3.673
		V405.512L345.151,405.512z"/>
	<path d="M361.687,408.303v4.104c0,0.997-0.234,1.744-0.702,2.242c-0.468,0.498-1.062,0.747-1.783,0.747
		c-0.708,0-1.291-0.253-1.747-0.757c-0.456-0.505-0.684-1.249-0.684-2.232v-13.684c0-2.209,0.798-3.312,2.395-3.312
		c0.816,0,1.404,0.258,1.765,0.772c0.36,0.518,0.558,1.278,0.594,2.287c0.588-1.009,1.191-1.771,1.809-2.287
		c0.618-0.516,1.443-0.772,2.476-0.772s2.035,0.258,3.007,0.772c0.972,0.518,1.458,1.2,1.458,2.054c0,0.601-0.207,1.096-0.621,1.484
		c-0.414,0.392-0.861,0.585-1.341,0.585c-0.18,0-0.615-0.109-1.305-0.333c-0.69-0.222-1.3-0.333-1.828-0.333
		c-0.72,0-1.309,0.189-1.765,0.567s-0.81,0.939-1.062,1.684c-0.252,0.745-0.426,1.629-0.522,2.655
		C361.734,405.575,361.687,406.826,361.687,408.303z"/>
	<path d="M387.314,412.588v-0.486c-0.66,0.757-1.312,1.371-1.953,1.847c-0.643,0.474-1.34,0.834-2.089,1.08
		c-0.75,0.246-1.569,0.369-2.458,0.369c-1.177,0-2.266-0.249-3.268-0.747s-1.87-1.209-2.602-2.135
		c-0.732-0.924-1.287-2.01-1.665-3.259c-0.378-1.248-0.567-2.599-0.567-4.051c0-3.072,0.75-5.467,2.25-7.184
		c1.5-1.718,3.475-2.575,5.923-2.575c1.417,0,2.611,0.243,3.583,0.729c0.973,0.486,1.92,1.233,2.846,2.241v-7.255
		c0-1.009,0.201-1.771,0.604-2.287c0.4-0.516,0.975-0.774,1.719-0.774c0.744,0,1.316,0.237,1.719,0.713
		c0.402,0.474,0.604,1.173,0.604,2.097v21.678c0,0.938-0.217,1.639-0.648,2.106c-0.431,0.467-0.99,0.702-1.674,0.702
		c-0.672,0-1.229-0.243-1.666-0.729S387.314,413.488,387.314,412.588z M377.645,405.368c0,1.332,0.207,2.467,0.621,3.401
		c0.414,0.938,0.981,1.643,1.702,2.116c0.72,0.475,1.506,0.711,2.358,0.711c0.864,0,1.653-0.226,2.367-0.676
		c0.715-0.449,1.285-1.14,1.711-2.07c0.426-0.93,0.639-2.091,0.639-3.482c0-1.31-0.213-2.435-0.639-3.376
		c-0.426-0.942-1.002-1.662-1.729-2.16c-0.726-0.498-1.521-0.747-2.385-0.747c-0.9,0-1.704,0.255-2.413,0.765
		c-0.708,0.512-1.257,1.242-1.647,2.196S377.645,404.107,377.645,405.368z"/>
	<path d="M425.623,408.969c0,1.356-0.33,2.519-0.99,3.484s-1.637,1.698-2.926,2.196c-1.291,0.498-2.859,0.747-4.709,0.747
		c-1.764,0-3.275-0.271-4.537-0.812c-1.26-0.54-2.188-1.215-2.791-2.025c-0.6-0.81-0.897-1.622-0.897-2.438
		c0-0.54,0.19-1.002,0.575-1.387c0.384-0.385,0.869-0.576,1.457-0.576c0.517,0,0.912,0.127,1.189,0.379
		c0.274,0.252,0.539,0.604,0.791,1.062c0.504,0.878,1.106,1.53,1.811,1.964c0.701,0.432,1.658,0.647,2.871,0.647
		c0.984,0,1.791-0.219,2.422-0.657c0.629-0.438,0.945-0.938,0.945-1.504c0-0.863-0.328-1.494-0.982-1.891
		c-0.653-0.396-1.729-0.773-3.229-1.134c-1.693-0.42-3.07-0.861-4.133-1.323c-1.063-0.462-1.912-1.071-2.547-1.827
		c-0.638-0.757-0.955-1.687-0.955-2.791c0-0.984,0.295-1.914,0.883-2.791c0.588-0.876,1.455-1.575,2.602-2.098
		c1.146-0.521,2.529-0.782,4.15-0.782c1.271,0,2.414,0.132,3.43,0.396c1.015,0.265,1.859,0.617,2.539,1.062
		c0.678,0.444,1.193,0.937,1.547,1.477c0.355,0.54,0.531,1.068,0.531,1.584c0,0.564-0.188,1.026-0.566,1.388
		c-0.379,0.358-0.916,0.54-1.61,0.54c-0.504,0-0.935-0.146-1.287-0.434c-0.355-0.288-0.76-0.72-1.215-1.296
		c-0.373-0.479-0.812-0.864-1.314-1.151c-0.506-0.288-1.188-0.434-2.053-0.434c-0.889,0-1.627,0.189-2.215,0.567
		s-0.883,0.85-0.883,1.413c0,0.517,0.217,0.938,0.647,1.27s1.015,0.604,1.746,0.819c0.732,0.215,1.74,0.479,3.025,0.792
		c1.522,0.372,2.77,0.815,3.735,1.333c0.965,0.516,1.697,1.125,2.195,1.827C425.373,407.267,425.623,408.068,425.623,408.969z"/>
	<path d="M445.344,406.61h-9.612c0.012,1.115,0.235,2.101,0.674,2.952c0.438,0.853,1.021,1.494,1.748,1.927
		c0.725,0.433,1.526,0.647,2.401,0.647c0.588,0,1.125-0.068,1.611-0.207c0.486-0.138,0.957-0.354,1.414-0.647
		c0.455-0.294,0.875-0.608,1.26-0.945c0.385-0.336,0.883-0.792,1.494-1.368c0.252-0.216,0.613-0.324,1.08-0.324
		c0.504,0,0.912,0.14,1.225,0.414c0.312,0.276,0.47,0.666,0.47,1.171c0,0.444-0.175,0.964-0.521,1.558
		c-0.35,0.595-0.875,1.165-1.576,1.711c-0.703,0.546-1.584,0.999-2.646,1.359c-1.062,0.359-2.283,0.539-3.664,0.539
		c-3.156,0-5.611-0.899-7.363-2.7c-1.754-1.8-2.629-4.242-2.629-7.327c0-1.452,0.217-2.8,0.648-4.042
		c0.431-1.242,1.062-2.309,1.891-3.196c0.828-0.888,1.848-1.568,3.061-2.043c1.211-0.475,2.558-0.711,4.033-0.711
		c1.92,0,3.566,0.404,4.941,1.215c1.375,0.812,2.403,1.857,3.088,3.143c0.684,1.284,1.025,2.593,1.025,3.925
		c0,1.235-0.354,2.038-1.062,2.403C447.625,406.428,446.629,406.61,445.344,406.61z M435.73,403.819h8.911
		c-0.12-1.681-0.573-2.938-1.358-3.771c-0.787-0.834-1.822-1.251-3.105-1.251c-1.225,0-2.229,0.423-3.016,1.27
		C436.375,400.912,435.898,402.163,435.73,403.819z"/>
	<path d="M460.26,408.303v4.104c0,0.997-0.233,1.744-0.703,2.242c-0.469,0.498-1.062,0.747-1.78,0.747
		c-0.709,0-1.291-0.253-1.748-0.757c-0.455-0.505-0.685-1.249-0.685-2.232v-13.684c0-2.209,0.799-3.312,2.396-3.312
		c0.815,0,1.403,0.258,1.764,0.772c0.361,0.518,0.56,1.278,0.596,2.287c0.589-1.009,1.191-1.771,1.81-2.287
		c0.619-0.516,1.442-0.772,2.477-0.772c1.031,0,2.033,0.258,3.006,0.772c0.974,0.518,1.459,1.2,1.459,2.054
		c0,0.601-0.207,1.096-0.621,1.484c-0.413,0.392-0.86,0.585-1.342,0.585c-0.18,0-0.614-0.109-1.305-0.333
		c-0.691-0.222-1.301-0.333-1.828-0.333c-0.721,0-1.309,0.189-1.764,0.567c-0.457,0.378-0.812,0.939-1.062,1.684
		c-0.251,0.745-0.426,1.629-0.522,2.655C460.307,405.575,460.26,406.826,460.26,408.303z"/>
	<path d="M476.361,398.473l3.979,11.162l4.285-11.647c0.336-0.938,0.666-1.601,0.99-1.989c0.324-0.391,0.815-0.585,1.477-0.585
		c0.625,0,1.156,0.21,1.594,0.63c0.438,0.42,0.656,0.906,0.656,1.458c0,0.216-0.039,0.468-0.115,0.756
		c-0.08,0.288-0.17,0.56-0.271,0.812s-0.219,0.54-0.351,0.863l-4.719,11.703c-0.131,0.336-0.303,0.763-0.512,1.278
		c-0.211,0.516-0.445,0.957-0.703,1.323c-0.258,0.365-0.576,0.65-0.953,0.854c-0.379,0.204-0.838,0.308-1.379,0.308
		c-0.695,0-1.25-0.159-1.664-0.479c-0.414-0.317-0.721-0.666-0.918-1.044c-0.199-0.378-0.531-1.125-1-2.241l-4.682-11.577
		c-0.107-0.287-0.219-0.575-0.332-0.863c-0.115-0.288-0.211-0.582-0.289-0.883c-0.078-0.3-0.117-0.559-0.117-0.773
		c0-0.336,0.102-0.669,0.307-0.999c0.203-0.33,0.486-0.601,0.847-0.812c0.36-0.21,0.75-0.313,1.17-0.313
		c0.815,0,1.379,0.233,1.684,0.702C475.65,396.582,475.99,397.368,476.361,398.473z"/>
	<path d="M497.199,393.125c-0.685,0-1.271-0.21-1.756-0.63c-0.486-0.42-0.729-1.015-0.729-1.782c0-0.696,0.248-1.27,0.748-1.72
		c0.498-0.45,1.076-0.675,1.736-0.675c0.637,0,1.2,0.204,1.692,0.61c0.492,0.408,0.738,1.003,0.738,1.783
		c0,0.756-0.24,1.347-0.721,1.773C498.43,392.912,497.859,393.125,497.199,393.125z M499.631,398.202v14.205
		c0,0.983-0.234,1.729-0.703,2.232s-1.062,0.757-1.783,0.757c-0.719,0-1.305-0.26-1.754-0.774c-0.45-0.516-0.676-1.254-0.676-2.215
		v-14.062c0-0.973,0.226-1.704,0.676-2.196c0.449-0.491,1.035-0.737,1.754-0.737c0.722,0,1.314,0.246,1.783,0.737
		C499.396,396.643,499.631,397.326,499.631,398.202z"/>
	<path d="M524.176,409.311c0,0.612-0.184,1.268-0.549,1.964c-0.367,0.695-0.924,1.358-1.674,1.988s-1.695,1.139-2.836,1.521
		c-1.142,0.383-2.426,0.576-3.854,0.576c-3.037,0-5.407-0.886-7.11-2.655c-1.705-1.771-2.558-4.146-2.558-7.121
		c0-2.017,0.392-3.799,1.17-5.348c0.781-1.548,1.908-2.745,3.386-3.593c1.477-0.846,3.239-1.269,5.293-1.269
		c1.272,0,2.438,0.186,3.502,0.558c1.062,0.372,1.963,0.854,2.701,1.44c0.737,0.587,1.303,1.216,1.69,1.882
		c0.392,0.666,0.586,1.287,0.586,1.863c0,0.588-0.219,1.086-0.656,1.494c-0.438,0.407-0.971,0.611-1.594,0.611
		c-0.408,0-0.748-0.104-1.018-0.314c-0.271-0.21-0.574-0.549-0.91-1.018c-0.6-0.911-1.228-1.597-1.881-2.053
		c-0.654-0.456-1.484-0.685-2.494-0.685c-1.451,0-2.621,0.566-3.51,1.702c-0.89,1.134-1.332,2.686-1.332,4.652
		c0,0.925,0.112,1.773,0.342,2.548c0.229,0.775,0.559,1.436,0.99,1.98c0.432,0.547,0.953,0.961,1.565,1.242
		c0.611,0.281,1.283,0.423,2.017,0.423c0.983,0,1.827-0.229,2.528-0.685c0.703-0.455,1.324-1.151,1.865-2.089
		c0.299-0.552,0.623-0.982,0.971-1.296c0.351-0.312,0.775-0.469,1.279-0.469c0.6,0,1.098,0.229,1.494,0.685
		C523.976,408.305,524.176,408.795,524.176,409.311z"/>
	<path d="M544.023,406.61h-9.613c0.012,1.115,0.236,2.101,0.674,2.952c0.439,0.853,1.021,1.494,1.748,1.927
		c0.725,0.433,1.527,0.647,2.402,0.647c0.588,0,1.125-0.068,1.61-0.207c0.486-0.138,0.957-0.354,1.414-0.647
		c0.455-0.294,0.875-0.608,1.261-0.945c0.385-0.336,0.883-0.792,1.493-1.368c0.252-0.216,0.613-0.324,1.08-0.324
		c0.504,0,0.912,0.14,1.226,0.414c0.312,0.276,0.469,0.666,0.469,1.171c0,0.444-0.174,0.964-0.521,1.558
		c-0.35,0.595-0.875,1.165-1.575,1.711c-0.703,0.546-1.584,0.999-2.646,1.359c-1.062,0.359-2.283,0.539-3.664,0.539
		c-3.156,0-5.61-0.899-7.362-2.7c-1.755-1.8-2.63-4.242-2.63-7.327c0-1.452,0.218-2.8,0.648-4.042s1.062-2.309,1.891-3.196
		c0.828-0.888,1.849-1.568,3.062-2.043c1.211-0.475,2.557-0.711,4.033-0.711c1.92,0,3.565,0.404,4.94,1.215
		c1.375,0.812,2.404,1.857,3.088,3.143c0.685,1.284,1.025,2.593,1.025,3.925c0,1.235-0.354,2.038-1.062,2.403
		C546.305,406.428,545.309,406.61,544.023,406.61z M534.41,403.819h8.912c-0.121-1.681-0.574-2.938-1.359-3.771
		c-0.787-0.834-1.822-1.251-3.104-1.251c-1.226,0-2.23,0.423-3.017,1.27C535.055,400.912,534.578,402.163,534.41,403.819z"/>
	<path d="M569.885,408.969c0,1.356-0.33,2.519-0.99,3.484c-0.659,0.966-1.635,1.698-2.926,2.196
		c-1.289,0.498-2.858,0.747-4.707,0.747c-1.766,0-3.276-0.271-4.537-0.812c-1.26-0.54-2.19-1.215-2.791-2.025
		c-0.6-0.81-0.899-1.622-0.899-2.438c0-0.54,0.19-1.002,0.576-1.387c0.385-0.385,0.87-0.576,1.459-0.576
		c0.516,0,0.911,0.127,1.188,0.379s0.541,0.604,0.793,1.062c0.504,0.878,1.107,1.53,1.81,1.964c0.703,0.432,1.659,0.647,2.871,0.647
		c0.983,0,1.793-0.219,2.422-0.657c0.631-0.438,0.944-0.938,0.944-1.504c0-0.863-0.325-1.494-0.979-1.891s-1.732-0.773-3.232-1.134
		c-1.69-0.42-3.067-0.861-4.131-1.323c-1.062-0.462-1.912-1.071-2.549-1.827c-0.637-0.757-0.953-1.687-0.953-2.791
		c0-0.984,0.293-1.914,0.881-2.791c0.588-0.876,1.455-1.575,2.603-2.098c1.146-0.521,2.53-0.782,4.149-0.782
		c1.273,0,2.416,0.132,3.431,0.396c1.016,0.265,1.86,0.617,2.538,1.062c0.679,0.444,1.193,0.937,1.55,1.477
		c0.354,0.54,0.53,1.068,0.53,1.584c0,0.564-0.188,1.026-0.567,1.388c-0.377,0.358-0.914,0.54-1.611,0.54
		c-0.504,0-0.934-0.146-1.287-0.434c-0.353-0.288-0.76-0.72-1.215-1.296c-0.373-0.479-0.811-0.864-1.313-1.151
		c-0.504-0.288-1.188-0.434-2.054-0.434c-0.889,0-1.627,0.189-2.215,0.567s-0.881,0.85-0.881,1.413c0,0.517,0.215,0.938,0.647,1.27
		c0.433,0.33,1.015,0.604,1.746,0.819c0.73,0.216,1.74,0.479,3.023,0.792c1.525,0.372,2.77,0.815,3.736,1.333
		c0.967,0.516,1.698,1.125,2.196,1.827C569.638,407.267,569.885,408.068,569.885,408.969z"/>
</g>
</svg>
